# Blender 5.0.1
# www.blender.org
mtllib Apple2.mtl
o Apple_Cut_Low.001
v -0.000146 0.156016 -0.002535
v -0.002507 0.155988 -0.001769
v -0.003244 0.155439 -0.004066
v -0.002216 0.155339 -0.004925
v -0.000883 0.155467 -0.004832
v -0.000025 0.155747 -0.003843
v -0.001174 0.156116 -0.001677
v -0.003365 0.155708 -0.002759
v -0.000457 0.128603 -0.050389
v -0.000440 0.117017 -0.061898
v -0.000264 0.098783 -0.069625
v -0.000074 0.076938 -0.072621
v -0.000256 0.054564 -0.069880
v -0.000429 0.033885 -0.060717
v -0.000425 0.018025 -0.049541
v -0.000403 0.007208 -0.037680
v -0.000397 0.003809 -0.012317
v 0.002762 0.124720 -0.007861
v 0.007576 0.130587 -0.019148
v 0.019531 0.128939 -0.046904
v 0.024249 0.117131 -0.057674
v 0.027464 0.098783 -0.064917
v 0.028542 0.076938 -0.067660
v 0.026908 0.054564 -0.064970
v 0.022875 0.033885 -0.056303
v 0.018424 0.018025 -0.045841
v 0.013867 0.007208 -0.034850
v 0.004163 0.003809 -0.011410
v 0.005462 0.124774 -0.006189
v 0.014386 0.130680 -0.014970
v 0.036531 0.129095 -0.036730
v 0.045240 0.117186 -0.045331
v 0.051017 0.098783 -0.051143
v 0.052816 0.076938 -0.053200
v 0.049920 0.054564 -0.050712
v 0.042611 0.033885 -0.043575
v 0.034395 0.018025 -0.035274
v 0.025963 0.007208 -0.026771
v 0.008028 0.003809 -0.008827
v 0.059206 0.117071 -0.025613
v 0.045046 0.018025 -0.019442
v 0.010611 0.003809 -0.004962
v 0.007895 0.124411 -0.000414
v 0.020524 0.130018 -0.000466
v 0.051821 0.128413 -0.000841
v 0.064086 0.116852 -0.001332
v 0.072128 0.098726 -0.001997
v 0.074554 0.076938 -0.002363
v 0.070544 0.054564 -0.001978
v 0.060337 0.033885 -0.001238
v 0.048777 0.018025 -0.000690
v 0.036875 0.007208 -0.000456
v 0.011518 0.003809 -0.000402
v 0.007264 0.124411 0.002773
v 0.018933 0.130018 0.007577
v 0.047862 0.128248 0.019306
v 0.059204 0.116737 0.023651
v 0.066645 0.098726 0.026170
v 0.068898 0.076938 0.026752
v 0.065179 0.054564 0.025591
v 0.055735 0.033885 0.022296
v 0.045046 0.018025 0.018252
v 0.034041 0.007208 0.013835
v 0.010611 0.003809 0.004158
v 0.005462 0.124592 0.005479
v 0.014377 0.130356 0.014418
v 0.036480 0.128404 0.036509
v 0.045087 0.116792 0.045082
v 0.050695 0.098726 0.050457
v 0.052399 0.076938 0.051901
v 0.049572 0.054564 0.049348
v 0.042440 0.033885 0.042459
v 0.034358 0.018025 0.034377
v 0.025963 0.007208 0.025962
v 0.008028 0.003809 0.008023
v 0.002735 0.124774 0.007286
v 0.007463 0.130623 0.018991
v 0.019043 0.128632 0.048001
v 0.023268 0.116906 0.059413
v 0.025833 0.098726 0.066729
v 0.026585 0.076938 0.068771
v 0.025250 0.054564 0.065268
v 0.021943 0.033885 0.055940
v 0.018105 0.018025 0.045141
v 0.013820 0.007208 0.034054
v 0.004163 0.003809 0.010606
v -0.000531 0.124720 0.007931
v -0.000813 0.130524 0.020623
v -0.001945 0.128717 0.052126
v -0.003111 0.117017 0.064590
v -0.004328 0.098783 0.072652
v -0.004763 0.076938 0.074930
v -0.004240 0.054564 0.071061
v -0.002795 0.033885 0.060800
v -0.001358 0.018025 0.048977
v -0.000618 0.007208 0.036915
v -0.000397 0.003809 0.011513
v -0.003762 0.124538 0.007305
v -0.008980 0.130212 0.019044
v -0.022515 0.128603 0.048210
v -0.028761 0.117017 0.059786
v -0.033403 0.098783 0.067297
v -0.034883 0.076938 0.069434
v -0.032684 0.054564 0.065835
v -0.026900 0.033885 0.056277
v -0.020572 0.018025 0.045279
v -0.014990 0.007208 0.034091
v -0.004956 0.003809 0.010606
v -0.000397 0.004967 -0.000402
v -0.006398 0.124538 0.005485
v -0.015610 0.130263 0.014436
v -0.038871 0.128635 0.036667
v -0.048724 0.116967 0.045479
v -0.055564 0.098726 0.051201
v -0.057644 0.076938 0.052873
v -0.054430 0.054564 0.050218
v -0.045849 0.033885 0.042965
v -0.036183 0.018025 0.034552
v -0.026984 0.007208 0.025994
v -0.008822 0.003809 0.008023
v -0.060746 0.117071 0.023547
v -0.057566 0.033885 0.022923
v -0.008632 0.124774 -0.000578
v -0.021147 0.130852 -0.000934
v -0.052049 0.128982 -0.002045
v -0.064175 0.117071 -0.002633
v -0.072022 0.098783 -0.002917
v -0.074421 0.076938 -0.002535
v -0.071082 0.054564 -0.001559
v -0.061304 0.033885 -0.000756
v -0.049681 0.018025 -0.000456
v -0.037690 0.007208 -0.000404
v -0.012312 0.003809 -0.000402
v -0.007969 0.124719 -0.003805
v -0.019456 0.130710 -0.009076
v -0.047746 0.128677 -0.022464
v -0.058743 0.116906 -0.027923
v -0.065792 0.098726 -0.031352
v -0.067999 0.076938 -0.031792
v -0.065149 0.054564 -0.029157
v -0.056423 0.033885 -0.024257
v -0.045875 0.018025 -0.019352
v -0.034848 0.007208 -0.014681
v -0.011405 0.003809 -0.004962
v -0.006200 0.124774 -0.006367
v -0.015001 0.130686 -0.015490
v -0.036679 0.128525 -0.038255
v -0.045099 0.116792 -0.047299
v -0.050445 0.098726 -0.053147
v -0.052077 0.076938 -0.054660
v -0.049937 0.054564 -0.051391
v -0.043300 0.033885 -0.043732
v -0.035219 0.018025 -0.035283
v -0.026768 0.007208 -0.026770
v -0.008822 0.003809 -0.008827
v -0.003563 0.124720 -0.007929
v -0.008363 0.130530 -0.019360
v -0.020203 0.128476 -0.047532
v -0.024804 0.116852 -0.058504
v -0.027636 0.098726 -0.065792
v -0.028404 0.076938 -0.068310
v -0.027260 0.054564 -0.065272
v -0.023681 0.033885 -0.056367
v -0.019269 0.018025 -0.045843
v -0.014672 0.007208 -0.034850
v -0.004956 0.003809 -0.011410
v -0.000414 0.124664 -0.008435
v -0.000433 0.130394 -0.020591
v 0.013664 0.133031 -0.033339
v 0.025665 0.133259 -0.026051
v 0.036473 0.132497 -0.000587
v 0.033672 0.132383 0.013600
v 0.025641 0.132684 0.025685
v 0.013413 0.132980 0.033760
v -0.001249 0.132916 0.036649
v -0.015683 0.132633 0.033873
v -0.027316 0.132684 0.025739
v -0.036906 0.133355 -0.001449
v -0.033902 0.133135 -0.015820
v -0.026068 0.132920 -0.027049
v -0.014400 0.132751 -0.033750
v -0.000445 0.132759 -0.035849
v -0.000397 0.002434 -0.025019
v 0.009023 0.002434 -0.023145
v 0.017009 0.002434 -0.017809
v 0.024218 0.002434 -0.000407
v 0.022345 0.002434 0.009017
v 0.017009 0.002434 0.017005
v 0.009023 0.002434 0.022341
v -0.000416 0.002434 0.024217
v -0.009855 0.002434 0.022346
v -0.017823 0.002434 0.017007
v -0.023140 0.002434 0.009018
v -0.025014 0.002434 -0.000402
v -0.023140 0.002434 -0.009822
v -0.017804 0.002434 -0.017809
v -0.009818 0.002434 -0.023145
v 0.033670 0.132963 -0.014559
v 0.034041 0.007208 -0.014704
v 0.022345 0.002434 -0.009824
v -0.034629 0.133199 0.013332
v -0.067347 0.054564 0.026526
v -0.046241 0.018025 0.018486
v -0.000408 0.122901 -0.000389
v 0.066667 0.098783 -0.029176
v 0.068933 0.076938 -0.030414
v -0.048992 0.128931 0.019015
v -0.070875 0.076938 0.027566
v 0.007264 0.124592 -0.003570
v 0.018931 0.130414 -0.008410
v 0.065207 0.054564 -0.028711
v 0.055744 0.033885 -0.024305
v -0.008085 0.124774 0.002719
v -0.019814 0.130680 0.007419
v -0.068536 0.098783 0.026510
v -0.011405 0.003809 0.004158
v 0.047858 0.128867 -0.020581
v -0.034899 0.007208 0.013874
v 0.000350 0.119074 -0.001777
v 0.001151 0.119073 -0.001006
v 0.001170 0.119075 0.000105
v 0.000396 0.119080 0.000906
v -0.000718 0.119085 0.000929
v -0.001518 0.119087 0.000159
v -0.001537 0.119085 -0.000953
v -0.000763 0.119079 -0.001754
v -0.000207 0.149994 -0.004176
v 0.000797 0.150272 -0.003042
v 0.000678 0.150541 -0.001530
v -0.000495 0.150644 -0.000525
v -0.002033 0.150520 -0.000616
v -0.003037 0.150243 -0.001750
v -0.002918 0.149973 -0.003262
v -0.001745 0.149871 -0.004267
v -0.000683 0.154973 -0.005054
v 0.000348 0.155299 -0.003869
v 0.000206 0.155612 -0.002301
v -0.001024 0.155730 -0.001269
v -0.002622 0.155583 -0.001378
v -0.003653 0.155257 -0.002564
v -0.003511 0.154944 -0.004132
v -0.002281 0.154826 -0.005163
vn -0.0788 0.9750 -0.2078
vn 0.0053 -0.2690 -0.9631
vn 0.0107 0.0009 -0.9999
vn 0.3501 -0.0040 -0.9367
vn 0.3434 -0.2790 -0.8968
vn 0.0089 0.5490 -0.8358
vn 0.0003 0.8490 -0.5283
vn 0.1727 0.8504 -0.4970
vn 0.2841 0.5517 -0.7841
vn -0.1419 -0.9882 0.0577
vn -0.4930 -0.8476 0.1964
vn -0.5356 -0.8445 -0.0026
vn -0.1540 -0.9881 -0.0002
vn -0.0051 0.9430 0.3327
vn 0.0097 0.9999 0.0080
vn -0.1355 0.9410 0.3102
vn 0.0014 -0.4924 -0.8704
vn 0.3183 -0.4995 -0.8057
vn 0.0123 0.2600 -0.9655
vn 0.3322 0.2629 -0.9058
vn -0.0000 -1.0000 -0.0000
vn -0.0000 -0.9947 0.1029
vn -0.0394 -0.9947 0.0950
vn -0.0086 0.9607 0.2774
vn -0.1164 0.9596 0.2563
vn 0.0003 -0.6565 -0.7544
vn 0.2830 -0.6591 -0.6968
vn -0.0079 0.9962 -0.0870
vn 0.0125 0.9965 -0.0831
vn 0.0001 -0.8423 -0.5389
vn 0.2051 -0.8427 -0.4978
vn 0.5603 0.5617 -0.6087
vn 0.6530 0.2645 -0.7096
vn -0.0727 -0.9947 0.0727
vn -0.2231 0.9399 0.2586
vn -0.1874 0.9596 0.2099
vn 0.5969 -0.5134 -0.6166
vn 0.5252 -0.6641 -0.5321
vn 0.6807 -0.0194 -0.7323
vn 0.0540 0.9970 -0.0554
vn 0.3792 -0.8435 -0.3805
vn 0.6555 -0.3005 -0.6929
vn 0.3517 0.8556 -0.3798
vn -0.0000 -0.9880 -0.1543
vn 0.0590 -0.9880 -0.1425
vn 0.4751 0.8593 -0.1895
vn 0.7579 0.5675 -0.3216
vn 0.1090 -0.9880 -0.1091
vn -0.2794 0.9449 0.1707
vn 0.8743 -0.3110 -0.3728
vn 0.7883 -0.5185 -0.3314
vn 0.8860 0.2627 -0.3821
vn -0.0950 -0.9947 0.0394
vn -0.2381 0.9610 0.1408
vn 0.6894 -0.6652 -0.2867
vn 0.9179 -0.0297 -0.3957
vn 0.0808 0.9967 -0.0073
vn 0.4963 -0.8435 -0.2056
vn 0.9665 0.2566 -0.0027
vn 0.9995 -0.0325 -0.0048
vn -0.2649 0.9640 0.0232
vn 0.0819 0.9964 0.0193
vn 0.7495 -0.6620 0.0003
vn 0.5385 -0.8426 0.0004
vn 0.9515 -0.3077 -0.0028
vn 0.5117 0.8591 0.0114
vn 0.8247 0.5656 0.0029
vn -0.3068 0.9514 0.0256
vn 0.8582 -0.5133 -0.0007
vn -0.1029 -0.9947 -0.0000
vn 0.7656 0.5614 0.3141
vn 0.8967 0.2504 0.3650
vn -0.0951 -0.9947 -0.0394
vn -0.2745 0.9515 -0.1390
vn -0.2365 0.9649 -0.1143
vn 0.7975 -0.5072 0.3268
vn 0.6955 -0.6590 0.2863
vn 0.9264 -0.0327 0.3751
vn 0.0822 0.9962 0.0276
vn 0.4985 -0.8421 0.2059
vn 0.8832 -0.3012 0.3596
vn 0.4760 0.8575 0.1953
vn 0.1425 -0.9880 -0.0590
vn 0.7069 -0.0327 0.7066
vn 0.6745 -0.2971 0.6758
vn 0.3713 0.8554 0.3612
vn 0.5876 0.5575 0.5864
vn 0.1544 -0.9880 0.0001
vn 0.1428 -0.9880 0.0590
vn -0.1950 0.9457 -0.2600
vn 0.6098 -0.5046 0.6112
vn 0.6850 0.2457 0.6859
vn -0.0727 -0.9947 -0.0727
vn -0.1656 0.9633 -0.2110
vn 0.5320 -0.6584 0.5324
vn 0.0758 0.9959 0.0498
vn 0.3814 -0.8420 0.3814
vn 0.3655 0.2445 0.8981
vn 0.3764 -0.0327 0.9259
vn -0.0939 0.9622 -0.2555
vn 0.0406 0.9962 0.0769
vn 0.2863 -0.6600 0.6946
vn 0.2061 -0.8425 0.4978
vn 0.3596 -0.2968 0.8846
vn 0.2020 0.8556 0.4766
vn 0.3161 0.5572 0.7679
vn 0.1092 -0.9880 0.1092
vn -0.1138 0.9419 -0.3161
vn 0.3263 -0.5061 0.7984
vn -0.0394 -0.9947 -0.0950
vn 0.0040 -0.3063 0.9519
vn 0.0048 -0.5191 0.8547
vn 0.0060 0.5685 0.8226
vn 0.0040 0.2536 0.9673
vn -0.0000 -0.9947 -0.1029
vn -0.0309 0.9437 -0.3295
vn -0.0207 0.9626 -0.2701
vn 0.0048 -0.6689 0.7433
vn 0.0038 -0.0330 0.9994
vn -0.0079 0.9966 0.0814
vn 0.0029 -0.8450 0.5347
vn 0.0036 0.8615 0.5077
vn 0.0591 -0.9880 0.1426
vn -0.3963 -0.0327 0.9175
vn -0.3721 -0.3224 0.8704
vn -0.1927 0.8684 0.4569
vn -0.3165 0.5868 0.7453
vn 0.0006 -0.9881 0.1537
vn 0.1006 0.9498 -0.2963
vn -0.3258 -0.5406 0.7757
vn -0.3810 0.2703 0.8842
vn 0.0393 -0.9947 -0.0950
vn 0.0886 0.9655 -0.2451
vn -0.2790 -0.6835 0.6745
vn -0.0365 0.9967 0.0720
vn -0.2006 -0.8494 0.4882
vn -0.6181 -0.5458 0.5657
vn -0.5257 -0.6879 0.5004
vn -0.7258 0.2758 0.6302
vn -0.7553 -0.0291 0.6548
vn 0.2087 0.9648 -0.1600
vn -0.0493 0.9966 0.0663
vn -0.3759 -0.8506 0.3676
vn -0.7090 -0.3237 0.6265
vn -0.3643 0.8682 0.3370
vn -0.6042 0.5898 0.5359
vn -0.0580 -0.9883 0.1411
vn 0.2504 0.9491 -0.1913
vn 0.0727 -0.9947 -0.0727
vn 0.3300 0.9402 -0.0842
vn -0.9047 -0.3054 0.2971
vn -0.8011 -0.5277 0.2825
vn -0.7789 0.5734 0.2541
vn -0.9200 0.2649 0.2888
vn 0.0950 -0.9947 -0.0393
vn 0.2726 0.9598 -0.0673
vn -0.6879 -0.6772 0.2610
vn -0.9538 -0.0230 0.2996
vn -0.0686 0.9967 0.0428
vn -0.4797 0.8610 0.1688
vn -0.1083 -0.9883 0.1070
vn -0.7454 -0.6665 -0.0095
vn -0.9986 -0.0221 -0.0477
vn -0.9559 -0.2913 -0.0365
vn -0.5196 0.8541 -0.0219
vn -0.8284 0.5589 -0.0371
vn 0.3426 0.9395 0.0030
vn -0.8594 -0.5109 -0.0216
vn -0.9666 0.2521 -0.0473
vn 0.1029 -0.9947 -0.0000
vn 0.2842 0.9588 0.0057
vn -0.0837 0.9965 -0.0057
vn 0.3097 0.9422 0.1281
vn 0.2560 0.9617 0.0982
vn -0.7931 -0.5098 -0.3333
vn -0.6903 -0.6642 -0.2869
vn -0.8860 0.2478 -0.3919
vn -0.9154 -0.0291 -0.4014
vn -0.0803 0.9956 -0.0481
vn -0.4960 -0.8437 -0.2055
vn -0.8782 -0.2951 -0.3763
vn -0.4761 0.8528 -0.2148
vn -0.7584 0.5586 -0.3358
vn 0.0950 -0.9947 0.0394
vn -0.1424 -0.9880 -0.0590
vn 0.2324 0.9414 0.2444
vn -0.6571 -0.2980 -0.6924
vn -0.6004 -0.5110 -0.6152
vn -0.5527 0.5609 -0.6163
vn -0.6485 0.2508 -0.7187
vn 0.0727 -0.9947 0.0727
vn 0.1893 0.9638 0.1879
vn -0.5265 -0.6641 -0.5308
vn -0.6762 -0.0295 -0.7362
vn -0.0567 0.9952 -0.0794
vn -0.3793 -0.8436 -0.3800
vn -0.3454 0.8535 -0.3901
vn 0.1031 0.9627 0.2501
vn -0.0238 0.9956 -0.0906
vn -0.2827 -0.6599 -0.6961
vn -0.2049 -0.8429 -0.4975
vn -0.3323 -0.0135 -0.9431
vn -0.3354 -0.2825 -0.8987
vn -0.1672 0.8512 -0.4975
vn -0.2661 0.5550 -0.7881
vn -0.1090 -0.9880 -0.1090
vn 0.1276 0.9424 0.3091
vn -0.3166 -0.5008 -0.8055
vn -0.3116 0.2554 -0.9153
vn 0.0394 -0.9947 0.0950
vn -0.0590 -0.9880 -0.1425
vn 0.4070 0.1759 -0.8963
vn 0.3126 0.4912 -0.8131
vn 0.7053 0.6082 -0.3641
vn 0.8794 0.3159 -0.3563
vn -0.3157 0.0981 -0.9438
vn -0.2862 0.4317 -0.8554
vn 0.9968 0.0605 0.0516
vn 0.9992 0.0156 0.0367
vn 0.9971 0.0565 0.0503
vn 0.7430 -0.0398 -0.6681
vn 0.7420 -0.0397 -0.6692
vn -0.6628 -0.1458 -0.7344
vn -0.6638 -0.1427 -0.7342
vn -0.6803 -0.0830 -0.7282
vn -0.9951 -0.0880 -0.0458
vn -0.9983 -0.0489 -0.0332
vn -0.9947 -0.0913 -0.0469
vn -0.7396 0.0088 0.6730
vn -0.7262 0.0051 0.6875
vn -0.7405 0.0090 0.6720
vn -0.0516 0.0925 0.9944
vn -0.0280 0.0462 0.9985
vn -0.0517 0.0926 0.9944
vn 0.6641 0.1149 0.7387
vn 0.6808 0.0505 0.7307
vn 0.6652 0.1111 0.7383
vn 0.0294 -0.0786 -0.9965
vn 0.0533 -0.1232 -0.9909
vn 0.0536 -0.1238 -0.9909
vn -0.8720 0.1288 -0.4723
vn -0.7506 0.4649 -0.4696
vn -0.9353 0.2509 0.2495
vn -0.8097 0.5724 0.1298
vn -0.4613 0.3917 0.7961
vn -0.4179 0.6899 0.5910
vn 0.2681 0.4678 0.8422
vn 0.1932 0.7482 0.6348
vn 0.8227 0.4365 0.3642
vn 0.6585 0.7144 0.2367
vn 0.7280 -0.0382 -0.6845
vt 0.860257 0.938353
vt 0.859968 0.935072
vt 0.862077 0.932540
vt 0.865349 0.932240
vt 0.867867 0.934348
vt 0.868157 0.937629
vt 0.866047 0.940161
vt 0.862775 0.940461
vt 0.231720 0.102871
vt 0.269678 0.100996
vt 0.273179 0.155063
vt 0.237435 0.154871
vt 0.349973 0.100715
vt 0.380031 0.104975
vt 0.377532 0.144120
vt 0.348081 0.147600
vt 0.456442 0.648393
vt 0.433673 0.668548
vt 0.418886 0.641374
vt 0.446498 0.630419
vt 0.481491 0.126211
vt 0.507006 0.128229
vt 0.481413 0.131167
vt 0.183843 0.112025
vt 0.190358 0.156424
vt 0.312834 0.098126
vt 0.313132 0.151089
vt 0.025194 0.164023
vt 0.060531 0.153144
vt 0.062283 0.162587
vt 0.447653 0.118973
vt 0.445162 0.135708
vt 0.150954 0.120773
vt 0.156952 0.158155
vt 0.410082 0.110475
vt 0.407834 0.140420
vt 0.120359 0.130564
vt 0.125867 0.159747
vt 0.353992 0.191974
vt 0.318071 0.200309
vt 0.061269 0.172139
vt 0.482517 0.135936
vt 0.448849 0.151081
vt 0.188547 0.201841
vt 0.154352 0.196222
vt 0.276983 0.205795
vt 0.414068 0.168666
vt 0.122980 0.189395
vt 0.239219 0.205512
vt 0.383916 0.181551
vt 0.092334 0.141347
vt 0.096109 0.161126
vt 0.403492 0.218762
vt 0.371972 0.237914
vt 0.093988 0.181149
vt 0.484803 0.140278
vt 0.235526 0.263593
vt 0.177504 0.249252
vt 0.331472 0.254130
vt 0.057587 0.181070
vt 0.459289 0.163847
vt 0.141722 0.234696
vt 0.282037 0.263693
vt 0.431094 0.194227
vt 0.111078 0.218250
vt 0.253312 0.500279
vt 0.204418 0.492021
vt 0.216189 0.436184
vt 0.257354 0.443277
vt 0.102089 0.430845
vt 0.072754 0.400143
vt 0.082283 0.386292
vt 0.119260 0.403742
vt 0.422872 0.454278
vt 0.391226 0.470002
vt 0.379863 0.430929
vt 0.411629 0.424500
vt 0.297861 0.498796
vt 0.295307 0.442392
vt 0.162876 0.475436
vt 0.130212 0.455410
vt 0.151306 0.416333
vt 0.180279 0.426280
vt 0.047491 0.376415
vt 0.025194 0.365347
vt 0.049696 0.372127
vt 0.355094 0.485004
vt 0.345671 0.437146
vt 0.511486 0.402219
vt 0.477908 0.418195
vt 0.474508 0.408942
vt 0.187935 0.379300
vt 0.222585 0.383299
vt 0.473909 0.399196
vt 0.050755 0.367282
vt 0.086637 0.370054
vt 0.344859 0.390881
vt 0.378025 0.392368
vt 0.261453 0.388396
vt 0.126903 0.373597
vt 0.409437 0.394444
vt 0.297190 0.388870
vt 0.159638 0.376476
vt 0.085820 0.200284
vt 0.265378 0.333722
vt 0.302656 0.335600
vt 0.158309 0.336596
vt 0.188086 0.332510
vt 0.441091 0.417018
vt 0.439645 0.396644
vt 0.050443 0.362331
vt 0.351425 0.345386
vt 0.224454 0.330272
vt 0.476001 0.389674
vt 0.085038 0.353318
vt 0.384690 0.354645
vt 0.124966 0.343009
vt 0.415548 0.365009
vt 0.220515 0.271505
vt 0.269975 0.271505
vt 0.079036 0.336937
vt 0.113242 0.313587
vt 0.401119 0.317118
vt 0.430807 0.336537
vt 0.313730 0.277986
vt 0.145526 0.294448
vt 0.178047 0.280966
vt 0.443930 0.376684
vt 0.048914 0.357768
vt 0.367487 0.298423
vt 0.480802 0.381064
vt 0.377729 0.943039
vt 0.322912 0.965617
vt 0.308499 0.899874
vt 0.358204 0.892838
vt 0.227579 0.974806
vt 0.183247 0.966181
vt 0.193645 0.909965
vt 0.230410 0.907166
vt 0.516540 0.838230
vt 0.486886 0.858828
vt 0.482115 0.850495
vt 0.083436 0.913954
vt 0.050287 0.895872
vt 0.051524 0.890875
vt 0.089616 0.897606
vt 0.410901 0.923422
vt 0.392638 0.885848
vt 0.278444 0.974739
vt 0.271591 0.905330
vt 0.118023 0.935838
vt 0.129305 0.904383
vt 0.439150 0.902834
vt 0.423401 0.875687
vt 0.150848 0.952990
vt 0.161638 0.908780
vt 0.454471 0.358095
vt 0.025194 0.889606
vt 0.265666 0.848016
vt 0.300116 0.846099
vt 0.162657 0.868238
vt 0.193617 0.861722
vt 0.461656 0.881532
vt 0.450987 0.863642
vt 0.051543 0.885726
vt 0.348930 0.846400
vt 0.228241 0.853441
vt 0.479954 0.841176
vt 0.089045 0.879588
vt 0.384333 0.847538
vt 0.130338 0.872931
vt 0.416591 0.846563
vt 0.349496 0.803162
vt 0.385980 0.809887
vt 0.220931 0.807357
vt 0.260811 0.801054
vt 0.083623 0.863559
vt 0.121587 0.843995
vt 0.418359 0.816442
vt 0.297646 0.798956
vt 0.154070 0.830021
vt 0.184324 0.818556
vt 0.446252 0.844029
vt 0.050125 0.880854
vt 0.480588 0.831588
vt 0.047520 0.876619
vt 0.302152 0.742472
vt 0.361148 0.756491
vt 0.161668 0.772335
vt 0.203449 0.752761
vt 0.483962 0.822580
vt 0.073390 0.848817
vt 0.397774 0.771163
vt 0.254974 0.741113
vt 0.102371 0.818432
vt 0.429330 0.786805
vt 0.130001 0.793563
vt 0.447644 0.823717
vt 0.405161 0.688363
vt 0.388477 0.651367
vt 0.316651 0.726781
vt 0.273572 0.733301
vt 0.269080 0.669656
vt 0.306690 0.669154
vt 0.180691 0.723790
vt 0.145843 0.709269
vt 0.158797 0.664553
vt 0.190233 0.668086
vt 0.448763 0.436697
vt 0.049454 0.643838
vt 0.025194 0.635542
vt 0.051089 0.639037
vt 0.371109 0.706938
vt 0.355436 0.660665
vt 0.224421 0.733294
vt 0.227290 0.669940
vt 0.512780 0.607455
vt 0.482285 0.626963
vt 0.477846 0.618459
vt 0.080560 0.664810
vt 0.087879 0.648415
vt 0.114131 0.689589
vt 0.126730 0.657935
vt 0.051532 0.633935
vt 0.088420 0.630397
vt 0.348579 0.615867
vt 0.381895 0.614297
vt 0.226076 0.614555
vt 0.265174 0.613008
vt 0.129423 0.626582
vt 0.412949 0.612293
vt 0.300824 0.615852
vt 0.162766 0.623209
vt 0.191402 0.618983
vt 0.455258 0.804227
vt 0.476067 0.609079
vt 0.442543 0.610761
vt 0.050581 0.629084
vt 0.299127 0.566089
vt 0.349660 0.571039
vt 0.184784 0.576780
vt 0.220619 0.568811
vt 0.476959 0.599585
vt 0.086022 0.614092
vt 0.384113 0.576247
vt 0.261476 0.562703
vt 0.123358 0.598662
vt 0.415494 0.582748
vt 0.155602 0.586232
vt 0.077094 0.601503
vt 0.106917 0.575089
vt 0.396158 0.537513
vt 0.427090 0.553616
vt 0.258133 0.508092
vt 0.303742 0.509224
vt 0.135058 0.552410
vt 0.164748 0.534471
vt 0.444369 0.590781
vt 0.048431 0.624728
vt 0.360522 0.522742
vt 0.207240 0.517567
vt 0.480590 0.590707
vt 0.056127 0.144490
vt 0.452364 0.102532
vt 0.482742 0.121587
vt 0.135157 0.083537
vt 0.169057 0.065533
vt 0.266151 0.040755
vt 0.315831 0.040755
vt 0.419527 0.080733
vt 0.105816 0.102561
vt 0.222453 0.046429
vt 0.357795 0.049954
vt 0.388508 0.063183
vt 0.452450 0.571648
vt 0.082497 0.122934
vt 0.780403 0.909747
vt 0.780962 0.909708
vt 0.779740 0.912653
vt 0.778945 0.912639
vt 0.778809 0.930196
vt 0.779601 0.930189
vt 0.779171 0.933246
vt 0.778250 0.933273
vt 0.777778 0.915903
vt 0.707468 0.916520
vt 0.707536 0.913846
vt 0.777000 0.912945
vt 0.774789 0.909957
vt 0.777841 0.927239
vt 0.778889 0.929986
vt 0.707781 0.929880
vt 0.707692 0.927217
vt 0.707572 0.924549
vt 0.777772 0.924445
vt 0.707470 0.921875
vt 0.777808 0.921600
vt 0.707432 0.919198
vt 0.777711 0.918768
vt 0.779217 0.932780
vt 0.707795 0.932545
vt 0.779459 0.927286
vt 0.780155 0.927283
vt 0.779504 0.924470
vt 0.780214 0.924454
vt 0.779503 0.921611
vt 0.780230 0.921586
vt 0.779470 0.918592
vt 0.780203 0.918590
vt 0.779310 0.915637
vt 0.780060 0.915646
vt 0.707584 0.911181
s 1
usemtl Apple_Baked
f 5/1/1 4/2/1 3/3/1 8/4/1 2/5/1 7/6/1 1/7/1 6/8/1
f 13/9/2 12/10/3 23/11/4 24/12/5
f 10/13/6 9/14/7 20/15/8 21/16/9
f 193/17/10 218/18/11 132/19/12 194/20/13
f 167/21/14 204/22/15 18/23/16
f 14/24/17 13/9/2 24/12/5 25/25/18
f 11/26/19 10/13/6 21/16/9 22/27/20
f 109/28/21 17/29/22 28/30/23
f 168/31/24 167/21/14 18/23/16 19/32/25
f 15/33/26 14/24/17 25/25/18 26/34/27
f 12/10/3 11/26/19 22/27/20 23/11/4
f 182/35/28 168/31/24 19/32/25 169/36/29
f 16/37/30 15/33/26 26/34/27 27/38/31
f 22/27/20 21/16/9 32/39/32 33/40/33
f 109/28/21 28/30/23 39/41/34
f 19/32/25 18/23/16 29/42/35 30/43/36
f 26/34/27 25/25/18 36/44/37 37/45/38
f 23/11/4 22/27/20 33/40/33 34/46/39
f 169/36/29 19/32/25 30/43/36 170/47/40
f 27/38/31 26/34/27 37/45/38 38/48/41
f 24/12/5 23/11/4 34/46/39 35/49/42
f 21/16/9 20/15/8 31/50/43 32/39/32
f 183/51/44 16/37/30 27/38/31 184/52/45
f 18/23/16 204/22/15 29/42/35
f 25/25/18 24/12/5 35/49/42 36/44/37
f 32/39/32 31/50/43 217/53/46 40/54/47
f 184/52/45 27/38/31 38/48/41 185/55/48
f 29/42/35 204/22/15 209/56/49
f 36/44/37 35/49/42 211/57/50 212/58/51
f 33/40/33 32/39/32 40/54/47 205/59/52
f 109/28/21 39/41/34 42/60/53
f 30/43/36 29/42/35 209/56/49 210/61/54
f 37/45/38 36/44/37 212/58/51 41/62/55
f 34/46/39 33/40/33 205/59/52 206/63/56
f 170/47/40 30/43/36 210/61/54 198/64/57
f 38/48/41 37/45/38 41/62/55 199/65/58
f 35/49/42 34/46/39 206/63/56 211/57/50
f 206/66/56 205/67/52 47/68/59 48/69/60
f 198/70/57 210/71/54 44/72/61 171/73/62
f 199/74/58 41/75/55 51/76/63 52/77/64
f 211/78/50 206/66/56 48/69/60 49/79/65
f 40/80/47 217/81/46 45/82/66 46/83/67
f 209/84/49 204/85/15 43/86/68
f 212/87/51 211/78/50 49/79/65 50/88/69
f 205/67/52 40/80/47 46/83/67 47/68/59
f 109/89/21 42/90/53 53/91/70
f 210/71/54 209/84/49 43/86/68 44/72/61
f 41/75/55 212/87/51 50/88/69 51/76/63
f 47/68/59 46/83/67 57/92/71 58/93/72
f 109/89/21 53/91/70 64/94/73
f 44/72/61 43/86/68 54/95/74 55/96/75
f 51/76/63 50/88/69 61/97/76 62/98/77
f 48/69/60 47/68/59 58/93/72 59/99/78
f 171/73/62 44/72/61 55/96/75 172/100/79
f 52/77/64 51/76/63 62/98/77 63/101/80
f 49/79/65 48/69/60 59/99/78 60/102/81
f 46/83/67 45/82/66 56/103/82 57/92/71
f 185/55/48 38/48/41 199/65/58 200/104/83
f 43/86/68 204/85/15 54/95/74
f 50/88/69 49/79/65 60/102/81 61/97/76
f 60/102/81 59/99/78 70/105/84 71/106/85
f 57/92/71 56/103/82 67/107/86 68/108/87
f 186/109/88 52/77/64 63/101/80 187/110/89
f 54/95/74 204/85/15 65/111/90
f 61/97/76 60/102/81 71/106/85 72/112/91
f 58/93/72 57/92/71 68/108/87 69/113/92
f 109/89/21 64/94/73 75/114/93
f 55/96/75 54/95/74 65/111/90 66/115/94
f 62/98/77 61/97/76 72/112/91 73/116/95
f 59/99/78 58/93/72 69/113/92 70/105/84
f 172/100/79 55/96/75 66/115/94 173/117/96
f 63/101/80 62/98/77 73/116/95 74/118/97
f 70/105/84 69/113/92 80/119/98 81/120/99
f 173/117/96 66/115/94 77/121/100 174/122/101
f 74/118/97 73/116/95 84/123/102 85/124/103
f 71/106/85 70/105/84 81/120/99 82/125/104
f 68/108/87 67/107/86 78/126/105 79/127/106
f 187/110/89 63/101/80 74/118/97 188/128/107
f 65/111/90 204/85/15 76/129/108
f 72/112/91 71/106/85 82/125/104 83/130/109
f 69/113/92 68/108/87 79/127/106 80/119/98
f 109/89/21 75/114/93 86/131/110
f 66/115/94 65/111/90 76/129/108 77/121/100
f 73/116/95 72/112/91 83/130/109 84/123/102
f 83/132/109 82/133/104 93/134/111 94/135/112
f 80/136/98 79/137/106 90/138/113 91/139/114
f 109/140/21 86/141/110 97/142/115
f 77/143/100 76/144/108 87/145/116 88/146/117
f 84/147/102 83/132/109 94/135/112 95/148/118
f 81/149/99 80/136/98 91/139/114 92/150/119
f 174/151/101 77/143/100 88/146/117 175/152/120
f 85/153/103 84/147/102 95/148/118 96/154/121
f 82/133/104 81/149/99 92/150/119 93/134/111
f 79/137/106 78/155/105 89/156/122 90/138/113
f 188/128/107 74/118/97 85/124/103 189/157/123
f 76/144/108 204/158/15 87/145/116
f 93/134/111 92/150/119 103/159/124 104/160/125
f 90/138/113 89/156/122 100/161/126 101/162/127
f 189/163/123 85/153/103 96/154/121 190/164/128
f 87/145/116 204/158/15 98/165/129
f 94/135/112 93/134/111 104/160/125 105/166/130
f 91/139/114 90/138/113 101/162/127 102/167/131
f 109/140/21 97/142/115 108/168/132
f 88/146/117 87/145/116 98/165/129 99/169/133
f 95/148/118 94/135/112 105/166/130 106/170/134
f 92/150/119 91/139/114 102/167/131 103/159/124
f 175/152/120 88/146/117 99/169/133 176/171/135
f 96/154/121 95/148/118 106/170/134 107/172/136
f 106/170/134 105/166/130 117/173/137 118/174/138
f 103/159/124 102/167/131 114/175/139 115/176/140
f 176/171/135 99/169/133 111/177/141 177/178/142
f 107/172/136 106/170/134 118/174/138 119/179/143
f 104/160/125 103/159/124 115/176/140 116/180/144
f 101/162/127 100/161/126 112/181/145 113/182/146
f 190/164/128 96/154/121 107/172/136 191/183/147
f 98/165/129 204/158/15 110/184/148
f 105/166/130 104/160/125 116/180/144 117/173/137
f 102/167/131 101/162/127 113/182/146 114/175/139
f 109/140/21 108/168/132 120/185/149
f 99/169/133 98/165/129 110/184/148 111/177/141
f 110/184/148 204/158/15 213/186/150
f 117/173/137 116/180/144 202/187/151 122/188/152
f 114/175/139 113/182/146 121/189/153 215/190/154
f 109/140/21 120/185/149 216/191/155
f 111/177/141 110/184/148 213/186/150 214/192/156
f 118/174/138 117/173/137 122/188/152 203/193/157
f 115/176/140 114/175/139 215/190/154 208/194/158
f 177/178/142 111/177/141 214/192/156 201/195/159
f 119/179/143 118/174/138 203/193/157 218/196/11
f 116/180/144 115/176/140 208/194/158 202/187/151
f 113/182/146 112/181/145 207/197/160 121/189/153
f 191/183/147 107/172/136 119/179/143 192/198/161
f 218/18/11 203/199/157 131/200/162 132/19/12
f 202/201/151 208/202/158 128/203/163 129/204/164
f 121/205/153 207/206/160 125/207/165 126/208/166
f 200/209/83 199/74/58 52/77/64 186/109/88
f 213/210/150 204/211/15 123/212/167
f 122/213/152 202/201/151 129/204/164 130/214/168
f 215/215/154 121/205/153 126/208/166 127/216/169
f 109/217/21 216/218/155 133/219/170
f 214/220/156 213/210/150 123/212/167 124/221/171
f 203/199/157 122/213/152 130/214/168 131/200/162
f 208/202/158 215/215/154 127/216/169 128/203/163
f 201/222/159 214/220/156 124/221/171 178/223/172
f 124/221/171 123/212/167 134/224/173 135/225/174
f 131/200/162 130/214/168 141/226/175 142/227/176
f 128/203/163 127/216/169 138/228/177 139/229/178
f 178/223/172 124/221/171 135/225/174 179/230/179
f 132/19/12 131/200/162 142/227/176 143/231/180
f 129/204/164 128/203/163 139/229/178 140/232/181
f 126/208/166 125/207/165 136/233/182 137/234/183
f 192/198/161 119/179/143 218/196/11 193/235/10
f 123/212/167 204/211/15 134/224/173
f 130/214/168 129/204/164 140/232/181 141/226/175
f 127/216/169 126/208/166 137/234/183 138/228/177
f 109/217/21 133/219/170 144/236/184
f 194/20/13 132/19/12 143/231/180 195/237/185
f 134/224/173 204/211/15 145/238/186
f 141/226/175 140/232/181 151/239/187 152/240/188
f 138/228/177 137/234/183 148/241/189 149/242/190
f 109/217/21 144/236/184 155/243/191
f 135/225/174 134/224/173 145/238/186 146/244/192
f 142/227/176 141/226/175 152/240/188 153/245/193
f 139/229/178 138/228/177 149/242/190 150/246/194
f 179/230/179 135/225/174 146/244/192 180/247/195
f 143/231/180 142/227/176 153/245/193 154/248/196
f 140/232/181 139/229/178 150/246/194 151/239/187
f 137/234/183 136/233/182 147/249/197 148/241/189
f 180/247/195 146/244/192 157/250/198 181/251/199
f 154/248/196 153/245/193 164/252/200 165/253/201
f 151/239/187 150/246/194 161/254/202 162/255/203
f 148/241/189 147/249/197 158/256/204 159/257/205
f 195/237/185 143/231/180 154/248/196 196/258/206
f 145/238/186 204/211/15 156/259/207
f 152/240/188 151/239/187 162/255/203 163/260/208
f 149/242/190 148/241/189 159/257/205 160/261/209
f 109/217/21 155/243/191 166/262/210
f 146/244/192 145/238/186 156/259/207 157/250/198
f 153/245/193 152/240/188 163/260/208 164/252/200
f 150/246/194 149/242/190 160/261/209 161/254/202
f 109/28/21 166/263/210 17/29/22
f 157/264/198 156/265/207 167/21/14 168/31/24
f 164/266/200 163/267/208 14/24/17 15/33/26
f 161/268/202 160/269/209 11/26/19 12/10/3
f 181/270/199 157/264/198 168/31/24 182/35/28
f 165/271/201 164/266/200 15/33/26 16/37/30
f 162/272/203 161/268/202 12/10/3 13/9/2
f 159/273/205 158/274/204 9/14/7 10/13/6
f 196/258/206 154/248/196 165/253/201 197/275/211
f 156/265/207 204/22/15 167/21/14
f 163/267/208 162/272/203 13/9/2 14/24/17
f 160/269/209 159/273/205 10/13/6 11/26/19
f 158/274/204 181/270/199 182/35/28 9/14/7
f 147/249/197 180/247/195 181/251/199 158/256/204
f 136/233/182 179/230/179 180/247/195 147/249/197
f 125/207/165 178/223/172 179/230/179 136/233/182
f 207/206/160 201/222/159 178/223/172 125/207/165
f 112/181/145 177/178/142 201/195/159 207/197/160
f 100/161/126 176/171/135 177/178/142 112/181/145
f 89/156/122 175/152/120 176/171/135 100/161/126
f 78/155/105 174/151/101 175/152/120 89/156/122
f 67/107/86 173/117/96 174/122/101 78/126/105
f 56/103/82 172/100/79 173/117/96 67/107/86
f 45/82/66 171/73/62 172/100/79 56/103/82
f 217/81/46 198/70/57 171/73/62 45/82/66
f 31/50/43 170/47/40 198/64/57 217/53/46
f 20/15/8 169/36/29 170/47/40 31/50/43
f 9/14/7 182/35/28 169/36/29 20/15/8
f 166/263/210 197/276/211 183/51/44 17/29/22
f 155/243/191 196/258/206 197/275/211 166/262/210
f 144/236/184 195/237/185 196/258/206 155/243/191
f 133/219/170 194/20/13 195/237/185 144/236/184
f 216/218/155 193/17/10 194/20/13 133/219/170
f 120/185/149 192/198/161 193/235/10 216/191/155
f 108/168/132 191/183/147 192/198/161 120/185/149
f 97/142/115 190/164/128 191/183/147 108/168/132
f 86/141/110 189/163/123 190/164/128 97/142/115
f 75/114/93 188/128/107 189/157/123 86/131/110
f 64/94/73 187/110/89 188/128/107 75/114/93
f 53/91/70 186/109/88 187/110/89 64/94/73
f 42/90/53 200/209/83 186/109/88 53/91/70
f 39/41/34 185/55/48 200/104/83 42/60/53
f 28/30/23 184/52/45 185/55/48 39/41/34
f 17/29/22 183/51/44 184/52/45 28/30/23
f 197/276/211 165/271/201 16/37/30 183/51/44
f 235/277/212 5/278/213 6/279/214 236/280/215
f 242/281/216 4/282/217 5/283/213 235/284/212
f 229/285/218 221/286/219 220/287/219 228/288/220
f 235/277/212 236/280/215 228/288/221 227/289/222
f 233/290/223 234/291/224 226/292/225 225/293/225
f 233/290/226 225/293/227 224/294/227 232/295/228
f 232/295/229 224/294/230 223/296/230 231/297/231
f 231/297/232 223/296/233 222/298/233 230/299/234
f 230/299/235 222/298/236 221/286/236 229/285/237
f 226/292/238 234/291/239 227/300/240 219/301/238
f 242/281/216 235/284/212 227/300/240 234/291/239
f 241/302/241 3/303/242 4/282/217 242/281/216
f 240/304/243 8/305/244 3/303/242 241/302/241
f 239/306/245 2/307/246 8/305/244 240/304/243
f 238/308/247 7/309/248 2/307/246 239/306/245
f 237/310/249 1/311/250 7/309/248 238/308/247
f 236/280/215 6/279/214 1/311/250 237/310/249
f 236/280/215 237/310/249 229/285/218 228/288/220
f 237/310/249 238/308/247 230/299/235 229/285/237
f 238/308/247 239/306/245 231/297/232 230/299/234
f 239/306/245 240/304/243 232/295/229 231/297/231
f 240/304/243 241/302/241 233/290/226 232/295/228
f 241/302/241 242/281/216 234/291/224 233/290/223
f 227/289/222 228/288/221 220/287/251 219/312/251
